<mxfile host="app.diagrams.net" modified="2022-11-08T02:47:38.546Z" agent="5.0 (X11; Linux x86_64) AppleWebKit/537.36 (KHTML, like Gecko) Chrome/101.0.0.0 Safari/537.36" etag="wrV2fcvdMvE4ALdWOHzH" version="20.5.3" type="github">
  <diagram id="EEQUzMQr_OX_zGiNwQVV" name="Página-1">
    <mxGraphModel dx="868" dy="464" grid="1" gridSize="10" guides="1" tooltips="1" connect="1" arrows="1" fold="1" page="1" pageScale="1" pageWidth="827" pageHeight="1169" math="0" shadow="0">
      <root>
        <mxCell id="0" />
        <mxCell id="1" parent="0" />
        <mxCell id="rjCsTw8yVJhA4yOWih5M-3" style="edgeStyle=orthogonalEdgeStyle;rounded=0;orthogonalLoop=1;jettySize=auto;html=1;" edge="1" parent="1" source="rjCsTw8yVJhA4yOWih5M-1" target="rjCsTw8yVJhA4yOWih5M-2">
          <mxGeometry relative="1" as="geometry" />
        </mxCell>
        <mxCell id="rjCsTw8yVJhA4yOWih5M-8" style="edgeStyle=orthogonalEdgeStyle;rounded=0;orthogonalLoop=1;jettySize=auto;html=1;entryX=0;entryY=0.5;entryDx=0;entryDy=0;" edge="1" parent="1" source="rjCsTw8yVJhA4yOWih5M-1" target="rjCsTw8yVJhA4yOWih5M-7">
          <mxGeometry relative="1" as="geometry" />
        </mxCell>
        <mxCell id="rjCsTw8yVJhA4yOWih5M-1" value="Empresa" style="shape=umlActor;verticalLabelPosition=bottom;verticalAlign=top;html=1;outlineConnect=0;" vertex="1" parent="1">
          <mxGeometry x="220" y="190" width="30" height="60" as="geometry" />
        </mxCell>
        <mxCell id="rjCsTw8yVJhA4yOWih5M-2" value="Mantém&amp;nbsp;frete" style="ellipse;whiteSpace=wrap;html=1;" vertex="1" parent="1">
          <mxGeometry x="380" y="230" width="90" height="60" as="geometry" />
        </mxCell>
        <mxCell id="rjCsTw8yVJhA4yOWih5M-7" value="Mantém carga&amp;nbsp;" style="ellipse;whiteSpace=wrap;html=1;" vertex="1" parent="1">
          <mxGeometry x="380" y="140" width="90" height="60" as="geometry" />
        </mxCell>
        <mxCell id="rjCsTw8yVJhA4yOWih5M-15" style="edgeStyle=orthogonalEdgeStyle;rounded=0;orthogonalLoop=1;jettySize=auto;html=1;" edge="1" parent="1" source="rjCsTw8yVJhA4yOWih5M-11" target="rjCsTw8yVJhA4yOWih5M-14">
          <mxGeometry relative="1" as="geometry" />
        </mxCell>
        <mxCell id="rjCsTw8yVJhA4yOWih5M-11" value="motorista" style="shape=umlActor;verticalLabelPosition=bottom;verticalAlign=top;html=1;outlineConnect=0;" vertex="1" parent="1">
          <mxGeometry x="220" y="330" width="30" height="60" as="geometry" />
        </mxCell>
        <mxCell id="rjCsTw8yVJhA4yOWih5M-14" value="Realiza frete" style="ellipse;whiteSpace=wrap;html=1;" vertex="1" parent="1">
          <mxGeometry x="380" y="330" width="90" height="60" as="geometry" />
        </mxCell>
      </root>
    </mxGraphModel>
  </diagram>
</mxfile>
